<svg version="1.1" id="Layer_1" xmlns="http://www.w3.org/2000/svg" xmlns:xlink="http://www.w3.org/1999/xlink" x="0px" y="0px"
	 width="100%" viewBox="0 0 496 496" enable-background="new 0 0 496 496" xml:space="preserve">
<path fill="#000000" opacity="1.000000" stroke="none" 
	d="
M203.751770,255.916229 
	C200.275040,254.003220 200.188370,250.799652 199.752335,247.911438 
	C194.421768,212.602997 189.162079,177.283859 183.888443,141.966827 
	C183.152420,137.037827 182.431244,132.106552 181.719589,127.173973 
	C181.230240,123.782372 179.197113,122.314941 175.871872,122.323418 
	C170.206268,122.337868 164.540527,122.315483 158.874908,122.295212 
	C155.594131,122.283478 152.628586,121.504417 152.549179,117.560410 
	C152.462463,113.253906 155.512375,112.605003 159.059402,112.639397 
	C167.223907,112.718544 175.391312,112.758636 183.554367,112.623055 
	C187.888428,112.551064 189.900436,114.469948 190.408829,118.722343 
	C191.256271,125.810852 192.432938,132.859390 193.405426,139.933777 
	C194.038071,144.535965 196.027847,146.812866 201.237747,146.787949 
	C240.063629,146.602356 278.890839,146.682434 317.717621,146.691238 
	C325.793732,146.693069 327.380798,148.220215 326.230560,156.089554 
	C322.579010,181.071548 318.720947,206.023331 314.944672,230.987091 
	C314.025330,237.064606 313.095795,243.140640 312.204346,249.222260 
	C311.597626,253.361664 310.322418,256.414307 305.124878,256.394409 
	C272.131012,256.268250 239.136444,256.320862 206.142105,256.302368 
	C205.481537,256.302002 204.821045,256.154602 203.751770,255.916229 
M254.507629,213.661041 
	C259.002106,213.659012 263.500610,213.539673 267.989716,213.693863 
	C271.294159,213.807373 273.009155,212.654312 272.944794,209.153732 
	C272.852997,204.161667 272.869415,199.166245 272.928192,194.173309 
	C272.959747,191.493362 271.871613,190.199112 269.087463,190.217407 
	C260.431915,190.274277 251.775330,190.280243 243.119949,190.208359 
	C240.362579,190.185471 239.210419,191.330826 239.260574,194.084793 
	C239.354492,199.243393 239.356888,204.405838 239.273102,209.564667 
	C239.224182,212.576691 240.613052,213.751648 243.527847,213.667145 
	C246.854095,213.570694 250.185562,213.655060 254.507629,213.661041 
M243.008942,246.671234 
	C251.335480,246.676758 259.664337,246.569214 267.987488,246.739456 
	C271.684204,246.815094 273.106689,245.305893 273.004944,241.721710 
	C272.872711,237.062439 272.870483,232.394806 272.982971,227.734894 
	C273.059479,224.564682 271.799988,223.246765 268.558990,223.295074 
	C260.234344,223.419083 251.906006,223.386597 243.580292,223.302292 
	C240.758484,223.273712 239.176834,224.096695 239.249908,227.252213 
	C239.369385,232.411819 239.282364,237.576294 239.276260,242.738708 
	C239.273895,244.739746 239.682785,246.426590 243.008942,246.671234 
M247.599762,179.998611 
	C254.408340,179.995590 261.219299,179.883743 268.024536,180.033264 
	C271.692230,180.113846 273.102234,178.587128 272.982941,174.992386 
	C272.823334,170.181900 272.906860,165.362244 272.940186,160.546906 
	C272.960022,157.680038 271.737061,156.309723 268.745483,156.336945 
	C260.277069,156.414062 251.807083,156.405014 243.338562,156.332214 
	C240.322403,156.306274 239.193863,157.703873 239.261810,160.595276 
	C239.355408,164.578445 239.273376,168.565628 239.276306,172.551086 
	C239.281723,179.934998 239.284653,179.934998 247.599762,179.998611 
M229.186829,177.852402 
	C229.259857,172.223526 229.436813,166.593170 229.357666,160.966431 
	C229.323273,158.523560 228.568344,156.348160 225.350693,156.365143 
	C216.872360,156.409927 208.393555,156.377716 199.914978,156.360092 
	C197.410095,156.354874 196.130249,157.511856 196.499695,160.054398 
	C197.261871,165.299820 198.249405,170.516281 198.871887,175.776886 
	C199.283600,179.256256 201.219269,180.086014 204.314880,180.033951 
	C210.963165,179.922104 217.614532,180.004944 224.264420,179.968445 
	C225.900620,179.959457 227.646225,180.155670 229.186829,177.852402 
M284.309875,179.321030 
	C292.704590,180.803345 301.161865,179.710083 309.587433,179.924194 
	C311.572876,179.974670 312.624054,178.814240 312.934448,176.938766 
	C313.851624,171.396866 314.806702,165.860229 315.629608,160.304153 
	C316.029297,157.605591 314.718903,156.319855 311.943024,156.336807 
	C303.646088,156.387527 295.348663,156.372650 287.051514,156.354309 
	C284.673737,156.349045 283.188110,157.281754 283.249207,159.833237 
	C283.399689,166.115494 282.633789,172.421371 284.309875,179.321030 
M202.406296,200.229492 
	C202.852142,203.003372 203.418503,205.764465 203.714752,208.554230 
	C204.128738,212.452744 206.142639,213.915939 210.029129,213.718521 
	C214.825867,213.474869 219.647995,213.541901 224.452087,213.695541 
	C227.876724,213.805084 229.376373,212.187515 229.386093,208.977951 
	C229.401138,204.008835 229.172058,199.034805 229.328644,194.071777 
	C229.429825,190.864929 227.930023,190.115341 225.108032,190.188965 
	C220.302292,190.314362 215.490845,190.223541 210.681793,190.219193 
	C201.458679,190.210846 201.458679,190.209579 202.406296,200.229492 
M288.746582,190.214813 
	C286.120270,190.264038 283.141602,189.681702 283.204254,193.895828 
	C283.283325,199.212845 283.262146,204.531845 283.236664,209.849747 
	C283.223511,212.594650 284.564972,213.701096 287.248322,213.667435 
	C292.731903,213.598648 298.218475,213.574951 303.700867,213.682419 
	C306.394836,213.735214 307.639221,212.477539 308.038696,209.965363 
	C308.871033,204.731079 309.775696,199.508347 310.619232,194.275803 
	C311.121307,191.161469 309.567200,190.146103 306.638702,190.197525 
	C300.989777,190.296722 295.337769,190.219955 288.746582,190.214813 
M206.674561,228.165207 
	C207.238373,232.093491 207.964539,236.006989 208.323502,239.953903 
	C208.740509,244.538956 210.178986,247.490891 215.637466,246.768784 
	C218.735229,246.358994 221.933517,246.607361 225.081711,246.708817 
	C228.264160,246.811401 229.619904,245.323792 229.587814,242.224564 
	C229.536270,237.249008 229.532486,232.272186 229.582550,227.296661 
	C229.608551,224.711990 228.769836,223.246292 225.857315,223.309952 
	C220.552063,223.425888 215.241776,223.387161 209.934814,223.317841 
	C207.055054,223.280243 206.030640,224.631729 206.674561,228.165207 
M304.080597,236.792877 
	C304.592560,233.851456 305.147278,230.916656 305.604492,227.966736 
	C306.063660,225.004654 305.290497,223.155945 301.728882,223.282257 
	C296.909576,223.453156 292.077301,223.417953 287.255249,223.292297 
	C284.193512,223.212509 283.120422,224.614380 283.171570,227.509293 
	C283.259766,232.499329 283.256775,237.493576 283.157867,242.483383 
	C283.100677,245.368896 284.136719,246.820206 287.215637,246.715057 
	C291.038147,246.584503 294.871552,246.592392 298.694489,246.717270 
	C301.381592,246.805054 302.697815,245.568268 303.063782,243.037155 
	C303.324738,241.232407 303.611969,239.431473 304.080597,236.792877 
z"/>
<path fill="#000000" opacity="1.000000" stroke="none" 
	d="
M273.923279,102.459694 
	C261.341187,98.843330 248.956390,97.288658 236.178284,99.280365 
	C223.627609,101.236633 212.558411,106.600082 202.225449,113.925903 
	C199.984741,110.955040 200.581604,108.977417 202.407822,107.122086 
	C202.754303,106.770065 203.159546,106.429649 203.602921,106.225914 
	C218.512421,99.375023 231.558716,88.727203 247.819687,84.619888 
	C260.524506,81.410820 272.595215,82.942619 283.864319,89.567833 
	C291.794373,94.230003 298.448029,100.462181 304.468353,107.301842 
	C286.817871,130.535706 236.914505,129.161072 222.543869,104.862679 
	C240.279083,96.916176 258.105804,98.940567 276.061859,103.289749 
	C275.453461,103.038261 274.845093,102.786774 273.923279,102.459694 
z"/>
<path fill="#000000" opacity="1.000000" stroke="none" 
	d="
M59.838882,344.532135 
	C57.722122,344.054657 55.937103,343.667206 54.141411,343.337982 
	C52.781284,343.088623 51.278111,342.789581 51.390545,341.090027 
	C51.515438,339.202179 53.203197,338.743622 54.718765,338.814667 
	C58.023209,338.969727 61.354263,339.840149 64.607079,339.579010 
	C75.563164,338.699554 86.523270,338.623535 97.496635,338.695953 
	C104.661186,338.743256 105.617516,339.890381 102.694763,346.510986 
	C101.061150,350.211395 101.122597,354.668121 97.733185,358.143616 
	C95.534309,355.951691 95.781296,353.505676 95.971909,351.104309 
	C96.361015,346.202423 94.350517,343.891022 89.448769,343.352448 
	C84.324097,342.789398 79.254227,344.480957 74.105858,343.526001 
	C72.369331,343.203888 71.577011,344.727051 71.048195,346.254211 
	C69.145203,351.749939 67.208069,357.233948 65.252045,362.711060 
	C64.311462,365.344788 65.430954,366.447571 67.984673,366.620758 
	C74.584106,367.068359 81.178856,367.653870 83.865547,359.362000 
	C84.350899,357.864075 85.516174,356.439758 87.503624,356.449371 
	C88.551117,357.452240 88.231979,358.594299 87.905991,359.699524 
	C85.979980,366.229401 84.066345,372.763367 82.066689,379.270782 
	C81.631035,380.688507 80.970390,382.339203 79.037300,381.931000 
	C77.287270,381.561401 77.449883,379.867493 77.687660,378.631531 
	C78.654984,373.603302 76.166451,371.857758 71.576828,371.272003 
	C63.229282,370.206573 62.818855,370.185089 60.834595,376.130615 
	C59.100304,381.327209 57.681839,386.629517 55.930393,391.819824 
	C55.046864,394.438110 55.679634,395.631104 58.454746,395.703796 
	C59.779694,395.738525 61.131744,395.768463 62.415066,396.054169 
	C63.552990,396.307495 64.706604,396.924805 64.638718,398.355042 
	C64.569183,399.820190 63.410896,400.264679 62.176735,400.269653 
	C53.517506,400.304474 44.858063,400.306152 36.198776,400.285034 
	C34.970669,400.282043 33.822136,399.951050 33.752636,398.404968 
	C33.688126,396.969788 34.687115,396.392914 35.861332,396.009552 
	C36.018715,395.958130 36.195034,395.870453 36.343384,395.899078 
	C45.222298,397.612518 45.947186,390.790863 47.872627,385.041351 
	C51.880829,373.072479 56.049179,361.157318 60.108322,349.205353 
	C60.607697,347.734985 61.875957,346.183258 59.838882,344.532135 
z"/>
<path fill="#000000" opacity="1.000000" stroke="none" 
	d="
M316.487610,394.660980 
	C321.119995,397.789337 325.592407,398.042480 329.726440,394.807404 
	C334.091034,391.391785 334.778809,387.111969 331.953003,381.333069 
	C329.692688,376.710602 327.352722,372.108063 324.178741,367.976929 
	C320.221893,362.826904 318.548401,357.146393 320.481750,350.633636 
	C323.370453,340.902405 335.234833,336.492340 343.403656,342.473145 
	C346.362946,344.639801 348.938171,346.590851 353.467896,343.360138 
	C352.989288,350.862488 350.352936,356.535736 348.753876,362.834320 
	C345.210144,361.361786 345.786041,358.826843 345.666351,356.650360 
	C345.432800,352.404053 345.000916,348.351990 340.697174,345.923920 
	C335.186066,342.814667 329.804260,345.600372 329.209930,351.965637 
	C328.849152,355.829590 330.132172,359.092010 332.355652,362.206573 
	C336.228455,367.631531 339.892395,373.175385 341.580261,379.793732 
	C344.283112,390.391815 338.070404,399.411713 327.199890,400.278992 
	C321.970551,400.696167 316.892426,400.000397 312.266876,397.242401 
	C311.143463,396.572571 310.076050,395.616272 308.592651,396.225311 
	C303.759186,398.209808 303.773987,396.101196 305.083862,392.327759 
	C306.223877,389.043732 306.898621,385.598206 307.779785,382.224304 
	C308.273773,380.332703 308.487793,378.241272 311.776001,377.485626 
	C313.442963,383.075623 310.219513,390.191010 316.487610,394.660980 
z"/>
<path fill="#000000" opacity="1.000000" stroke="none" 
	d="
M182.710220,373.438965 
	C180.265930,368.687408 178.814789,368.370239 175.249496,371.700745 
	C168.615707,377.897614 165.604538,386.359222 161.448135,394.098114 
	C160.009583,396.776642 159.188354,401.314789 155.329529,399.795288 
	C151.470169,398.275513 153.873291,394.269989 154.839203,391.512360 
	C159.511353,378.173370 164.277481,364.865112 169.224869,351.626160 
	C170.731476,347.594604 171.661194,344.274811 166.199860,342.813477 
	C165.711945,342.682922 165.408585,341.862610 165.005997,341.345245 
	C167.255569,339.943665 177.750443,340.060944 179.211365,341.479370 
	C181.066116,343.280151 179.887421,345.116180 179.179703,346.982758 
	C176.243744,354.726013 173.363861,362.490540 170.768402,370.613434 
	C173.466049,368.818390 175.881424,366.751465 178.877075,365.519409 
	C185.137573,362.944550 190.049301,365.545410 190.121368,372.340027 
	C190.220016,381.642517 186.287155,389.802612 181.080276,397.225861 
	C178.935516,400.283569 175.070648,400.445557 171.472687,400.286163 
	C169.254745,400.187927 167.587189,399.160767 166.813278,397.131622 
	C166.208511,395.545990 166.995239,394.065216 168.369720,393.269226 
	C170.395126,392.096222 172.195847,392.830780 173.711563,394.474518 
	C174.257858,395.066956 174.886002,395.583893 175.434067,396.095398 
	C181.332764,392.510254 184.747528,381.936951 182.710220,373.438965 
z"/>
<path fill="#000000" opacity="1.000000" stroke="none" 
	d="
M126.624832,392.254028 
	C124.365250,395.017303 121.349770,396.784698 118.309334,398.500122 
	C115.828743,399.899689 113.248283,401.425232 110.440384,399.410553 
	C107.585564,397.362213 110.301521,394.874298 110.116165,392.419739 
	C106.067787,394.689697 102.580650,397.752960 98.303024,399.461487 
	C93.081001,401.547211 90.223961,399.855835 89.955170,394.230865 
	C89.594963,386.692993 93.841560,381.005127 98.119385,375.477020 
	C100.988518,371.769287 104.750763,368.993103 108.923515,366.795319 
	C113.156578,364.565765 117.326889,363.389740 121.358101,367.297882 
	C122.056465,366.768677 122.651894,366.451904 123.067169,365.977478 
	C124.302414,364.566193 125.584915,362.888153 127.609520,364.331421 
	C129.438675,365.635345 128.804245,367.710602 128.124283,369.375641 
	C126.117378,374.290009 123.901642,379.118622 121.826012,384.005585 
	C120.545700,387.020020 118.649551,389.814026 118.250160,393.323181 
	C122.126869,394.240173 123.636154,388.481934 127.655174,390.710175 
	C127.360107,391.526672 126.992462,391.890350 126.624832,392.254028 
M109.126350,387.608795 
	C113.043396,383.577698 115.413414,378.682404 117.121712,373.402740 
	C117.554245,372.065979 117.901192,370.758575 116.587311,369.786255 
	C115.227158,368.779694 113.924538,369.663330 112.939606,370.432129 
	C106.228027,375.670990 101.367157,382.269379 98.672791,390.398071 
	C98.271935,391.607391 98.390511,392.726501 99.375084,393.589203 
	C100.512993,394.586182 101.602135,393.949646 102.515732,393.218567 
	C104.587608,391.560577 106.584785,389.809265 109.126350,387.608795 
z"/>
<path fill="#000000" opacity="1.000000" stroke="none" 
	d="
M252.877457,373.773010 
	C251.954819,374.647919 251.505829,375.710297 250.284302,375.527832 
	C249.603882,370.290649 253.292984,364.067047 257.936127,362.594910 
	C261.478271,361.471893 263.484070,363.179962 262.711548,366.886780 
	C262.071472,369.957947 261.098419,372.959778 260.960327,376.546539 
	C263.316437,373.992279 265.571228,371.333679 268.060394,368.916443 
	C270.082153,366.953094 272.329895,365.206696 274.578979,363.497711 
	C276.810638,361.802032 279.408051,360.696625 281.925171,362.577789 
	C284.301025,364.353455 283.057281,366.826111 282.283813,368.998932 
	C280.220337,374.795563 278.065063,380.559509 276.003052,386.356659 
	C275.359528,388.165894 274.634949,389.998932 274.881073,392.303314 
	C278.323608,391.476257 279.506409,387.654602 282.828552,386.983368 
	C282.355652,392.374939 274.524139,400.180634 269.641632,400.224457 
	C265.245697,400.263947 265.318481,397.423462 266.273407,394.377045 
	C268.610535,386.921173 271.055878,379.499207 273.462128,372.065033 
	C273.761292,371.140717 274.087463,370.225159 274.569244,368.812653 
	C271.494659,368.761414 270.134369,370.712463 268.714203,372.363068 
	C262.988281,379.017944 260.132996,387.349121 255.749924,394.791412 
	C255.329422,395.505371 255.124969,396.362000 254.640182,397.019684 
	C253.376068,398.734619 252.125534,401.098053 249.533905,399.803528 
	C247.093887,398.584747 247.592804,396.214264 248.439484,394.084595 
	C250.836487,388.055389 253.272247,382.041626 255.673920,376.014252 
	C256.338501,374.346405 257.303375,372.722839 256.721466,370.713837 
	C254.569321,370.488861 254.027130,372.272491 252.877457,373.773010 
z"/>
<path fill="#000000" opacity="1.000000" stroke="none" 
	d="
M218.668732,286.061707 
	C210.278412,281.779358 207.576904,274.864990 211.258957,268.009857 
	C214.242447,262.455292 220.429947,260.115265 226.636063,262.194458 
	C231.866196,263.946686 235.767654,270.217743 234.945847,275.551392 
	C234.006302,281.649109 228.741806,286.236115 222.548004,286.318359 
	C221.389084,286.333771 220.228500,286.224213 218.668732,286.061707 
z"/>
<path fill="#000000" opacity="1.000000" stroke="none" 
	d="
M278.625427,274.861023 
	C278.981506,267.122589 282.667236,262.475800 288.690735,261.715698 
	C295.521881,260.853638 300.954071,264.002136 302.876404,269.937683 
	C304.782562,275.823303 302.493896,281.945099 297.117615,284.927368 
	C289.948975,288.903870 279.283661,285.095032 278.625427,274.861023 
z"/>
<path fill="#000000" opacity="1.000000" stroke="none" 
	d="
M219.189423,377.469147 
	C221.713699,371.446991 225.047882,366.638031 230.813782,363.906128 
	C236.324585,361.295074 240.540421,362.829285 242.943787,368.393524 
	C247.045410,377.889526 239.711441,395.635010 230.102585,399.464539 
	C223.670151,402.028137 217.702499,397.979736 216.825211,390.435303 
	C216.311691,386.019165 217.445084,381.879974 219.189423,377.469147 
M239.566925,370.119873 
	C238.644897,367.556580 236.772980,366.366882 234.655899,368.298859 
	C227.881622,374.480743 223.418686,382.153503 221.328918,391.107452 
	C220.957321,392.699585 221.074387,394.561646 222.990723,395.374725 
	C224.601425,396.058136 226.098572,395.230774 227.018555,394.108307 
	C232.700409,387.175781 238.187546,380.103058 239.566925,370.119873 
z"/>
<path fill="#000000" opacity="1.000000" stroke="none" 
	d="
M375.682617,390.653900 
	C375.426727,379.740601 378.719971,370.840332 387.673828,364.833496 
	C394.978455,359.933075 401.638367,363.512207 402.344147,372.297852 
	C403.102112,381.733246 399.783386,389.641174 393.360992,396.257385 
	C390.387177,399.320923 386.584167,401.350189 382.076935,399.828613 
	C378.029022,398.462128 376.127838,395.250336 375.682617,390.653900 
M397.408203,374.992920 
	C397.630524,372.509735 399.716034,369.386505 396.396149,367.875946 
	C393.048950,366.352936 391.470306,369.591095 389.734985,371.703918 
	C385.484711,376.878876 382.337067,382.684357 380.105865,388.990784 
	C379.303345,391.259033 378.552917,393.738892 381.179260,395.177673 
	C383.827301,396.628357 385.571167,394.572235 386.967773,392.710815 
	C390.952362,387.399963 394.554565,381.841919 397.408203,374.992920 
z"/>
<path fill="#000000" opacity="1.000000" stroke="none" 
	d="
M445.666077,394.148132 
	C449.365753,395.563721 451.751709,392.231293 454.918060,392.248230 
	C454.543976,396.077820 449.886353,399.613403 444.652405,400.246460 
	C440.444305,400.755432 438.709076,398.263458 437.595306,394.753265 
	C433.880310,383.045013 444.403748,365.767822 456.516266,363.998077 
	C459.816864,363.515808 462.812988,364.507172 464.553345,367.725494 
	C466.148834,370.675873 465.925079,373.536621 463.698395,376.055847 
	C460.617126,379.541962 456.754730,381.782104 452.093140,382.253784 
	C444.626587,383.009186 442.544739,386.517975 445.666077,394.148132 
M457.380981,373.032318 
	C458.174591,371.792664 459.279205,370.591003 457.892395,369.073395 
	C452.999695,370.439606 450.427124,373.189606 449.235687,378.476654 
	C452.701508,378.091980 454.974426,376.066315 457.380981,373.032318 
z"/>
<path fill="#000000" opacity="1.000000" stroke="none" 
	d="
M365.488220,393.465088 
	C362.470703,396.469025 359.287872,398.529358 355.507568,399.550568 
	C351.553436,400.618713 350.159180,399.497009 350.607483,395.396759 
	C351.196960,390.005646 354.327545,385.496277 356.084534,380.501404 
	C357.397156,376.769806 359.059784,373.161285 360.505035,369.647522 
	C359.182739,367.183563 355.420959,367.975342 354.997314,365.101624 
	C355.563934,363.725555 356.504517,363.404633 357.547211,363.593597 
	C361.069916,364.232056 363.227173,362.675568 364.604126,359.545074 
	C364.992889,358.661224 365.694977,357.860168 366.409271,357.186371 
	C367.758728,355.913422 369.328583,354.562500 371.226654,355.875061 
	C372.935455,357.056702 372.234375,358.789795 371.583954,360.377350 
	C371.278351,361.123352 371.114105,361.927277 370.911957,362.615814 
	C372.190155,364.351654 374.140656,363.648804 375.576324,364.424988 
	C376.869080,365.123901 377.938629,365.907166 377.546600,367.451050 
	C377.151581,369.006958 375.630646,369.615784 374.371765,369.098328 
	C369.253204,366.994354 368.109222,370.542725 366.693939,374.075684 
	C364.363251,379.893890 361.884918,385.652985 359.170685,392.150696 
	C363.390137,391.558350 365.188904,387.745331 368.905823,387.291901 
	C369.381622,390.296783 367.167480,391.552917 365.488220,393.465088 
z"/>
<path fill="#000000" opacity="1.000000" stroke="none" 
	d="
M438.003754,369.783752 
	C430.514862,367.298889 430.209503,367.124512 426.107544,374.306976 
	C422.246735,381.067230 419.078369,388.226959 415.700409,395.256592 
	C414.550934,397.648712 413.804840,400.998016 410.394379,399.907898 
	C406.529724,398.672546 407.494293,395.145905 408.390961,392.273499 
	C410.654663,385.022278 413.095123,377.826172 415.527374,370.417236 
	C412.444153,370.271210 411.432434,373.853973 408.638062,373.249542 
	C407.424774,368.394287 413.757599,361.017242 418.435974,361.827087 
	C420.912140,362.255737 421.048401,364.046906 420.626190,366.007538 
	C419.733521,370.153046 418.785858,374.286682 417.629669,379.458862 
	C421.648529,371.841461 425.579529,365.548340 433.184601,362.773743 
	C435.630890,361.881256 437.981689,362.095459 439.530914,364.139252 
	C441.027649,366.113861 440.597504,368.218506 438.003754,369.783752 
z"/>
<path fill="#000000" opacity="1.000000" stroke="none" 
	d="
M199.744904,374.080841 
	C198.292191,375.114868 197.179901,376.347534 195.260437,374.938416 
	C195.186905,371.973053 197.829346,371.135376 199.709534,369.792267 
	C201.463760,368.539124 203.311783,367.391357 205.216263,366.381561 
	C207.229691,365.313965 209.432098,363.631348 211.658478,365.528961 
	C214.188721,367.685638 213.090927,370.402435 212.014572,372.886047 
	C210.033051,377.458313 207.966675,381.993927 205.925827,386.540375 
	C204.846130,388.945587 203.745773,391.341553 202.463455,394.162506 
	C206.054108,395.089355 208.505966,391.305206 211.646317,392.601227 
	C212.512924,395.018646 210.619766,395.721130 209.297714,396.389832 
	C206.037033,398.039185 202.692245,399.552368 199.283508,400.866852 
	C197.424149,401.583862 195.228897,401.888062 193.639481,400.271362 
	C192.001175,398.604889 192.597168,396.557556 193.458389,394.683746 
	C196.785904,387.443787 200.146347,380.218964 203.601318,372.757843 
	C201.860687,372.141602 201.026825,373.327209 199.744904,374.080841 
z"/>
<path fill="#000000" opacity="1.000000" stroke="none" 
	d="
M126.735550,392.596680 
	C126.992462,391.890350 127.360107,391.526672 127.979416,390.868195 
	C131.290237,389.291321 133.325577,390.188385 134.471436,393.343262 
	C135.098907,395.070923 135.954666,397.134857 138.273682,396.297058 
	C140.199265,395.601379 140.508728,393.472015 140.358978,391.616730 
	C140.039001,387.652008 139.609604,383.691650 139.075851,379.749695 
	C138.120407,372.693512 140.280090,367.045013 145.015213,364.567139 
	C149.395737,362.274872 154.306641,363.903198 155.199829,368.027832 
	C155.505524,369.439453 155.966003,371.141388 154.373657,372.118652 
	C152.615463,373.197693 151.202484,372.335266 150.089081,370.861328 
	C149.396561,369.944519 148.891342,368.826660 147.429977,368.631805 
	C145.034424,369.549927 145.154648,371.574860 145.640045,373.552429 
	C146.971710,378.977905 146.594391,384.495514 146.181839,389.916687 
	C145.589905,397.695312 138.641632,402.304504 132.223831,399.664093 
	C129.212875,398.425293 127.531151,396.066925 126.735550,392.596680 
z"/>
<path fill="#000000" opacity="1.000000" stroke="none" 
	d="
M211.051575,350.160095 
	C208.354309,349.439178 206.746552,348.069336 207.193069,345.506042 
	C207.506058,343.709442 208.923950,342.771332 210.826859,342.793335 
	C212.741653,342.815491 213.963608,343.822540 214.384628,345.622162 
	C214.959442,348.079102 214.306229,349.884186 211.051575,350.160095 
z"/>
</svg>